G75*
G70*
%OFA0B0*%
%FSLAX24Y24*%
%IPPOS*%
%LPD*%
%AMOC8*
5,1,8,0,0,1.08239X$1,22.5*
%
%ADD10C,0.0000*%
%ADD11C,0.0176*%
%ADD12C,0.0040*%
%ADD13C,0.0030*%
D10*
X004341Y000620D02*
X004341Y006053D01*
X004340Y006053D02*
X004342Y006092D01*
X004348Y006130D01*
X004357Y006167D01*
X004370Y006204D01*
X004387Y006239D01*
X004406Y006272D01*
X004429Y006303D01*
X004455Y006332D01*
X004484Y006358D01*
X004515Y006381D01*
X004548Y006400D01*
X004583Y006417D01*
X004620Y006430D01*
X004657Y006439D01*
X004695Y006445D01*
X004734Y006447D01*
X011902Y006447D01*
X011941Y006445D01*
X011979Y006439D01*
X012016Y006430D01*
X012053Y006417D01*
X012088Y006400D01*
X012121Y006381D01*
X012152Y006358D01*
X012181Y006332D01*
X012207Y006303D01*
X012230Y006272D01*
X012249Y006239D01*
X012266Y006204D01*
X012279Y006167D01*
X012288Y006130D01*
X012294Y006092D01*
X012296Y006053D01*
X012296Y000620D01*
X012294Y000581D01*
X012288Y000543D01*
X012279Y000506D01*
X012266Y000469D01*
X012249Y000434D01*
X012230Y000401D01*
X012207Y000370D01*
X012181Y000341D01*
X012152Y000315D01*
X012121Y000292D01*
X012088Y000273D01*
X012053Y000256D01*
X012016Y000243D01*
X011979Y000234D01*
X011941Y000228D01*
X011902Y000226D01*
X004734Y000226D01*
X004695Y000228D01*
X004657Y000234D01*
X004620Y000243D01*
X004583Y000256D01*
X004548Y000273D01*
X004515Y000292D01*
X004484Y000315D01*
X004455Y000341D01*
X004429Y000370D01*
X004406Y000401D01*
X004387Y000434D01*
X004370Y000469D01*
X004357Y000506D01*
X004348Y000543D01*
X004342Y000581D01*
X004340Y000620D01*
D11*
X009603Y002550D03*
D12*
X009774Y002699D02*
X009390Y002699D01*
X009314Y002776D01*
X009314Y002930D01*
X009390Y003006D01*
X009774Y003006D01*
X009697Y003160D02*
X009620Y003160D01*
X009544Y003236D01*
X009544Y003390D01*
X009467Y003467D01*
X009390Y003467D01*
X009314Y003390D01*
X009314Y003236D01*
X009390Y003160D01*
X009237Y003313D02*
X009851Y003313D01*
X009774Y003236D02*
X009774Y003390D01*
X009697Y003467D01*
X009620Y003620D02*
X009774Y003774D01*
X009314Y003774D01*
X009314Y003927D02*
X009314Y003620D01*
X009697Y003160D02*
X009774Y003236D01*
X011459Y004957D02*
X011459Y005417D01*
X011689Y005187D01*
X011382Y005187D01*
X011842Y005187D02*
X011919Y005110D01*
X012149Y005110D01*
X011996Y005110D02*
X011842Y004957D01*
X011842Y005187D02*
X011842Y005341D01*
X011919Y005417D01*
X012149Y005417D01*
X012149Y004957D01*
X005980Y003506D02*
X005980Y003199D01*
X005904Y003122D01*
X005750Y003122D01*
X005673Y003199D01*
X005520Y003199D02*
X005520Y003352D01*
X005290Y003352D01*
X005213Y003276D01*
X005213Y003199D01*
X005290Y003122D01*
X005443Y003122D01*
X005520Y003199D01*
X005520Y003352D02*
X005366Y003506D01*
X005213Y003583D01*
X005673Y003506D02*
X005750Y003583D01*
X005904Y003583D01*
X005980Y003506D01*
X005161Y002524D02*
X004931Y002524D01*
X004854Y002447D01*
X004854Y002293D01*
X004931Y002217D01*
X005161Y002217D01*
X005007Y002217D02*
X004854Y002063D01*
X004700Y002140D02*
X004624Y002063D01*
X004470Y002063D01*
X004394Y002140D01*
X004394Y002293D01*
X004470Y002370D01*
X004547Y002370D01*
X004700Y002293D01*
X004700Y002524D01*
X004394Y002524D01*
X005161Y002524D02*
X005161Y002063D01*
X005236Y001701D02*
X005006Y001701D01*
X004929Y001624D01*
X004929Y001471D01*
X005006Y001394D01*
X005236Y001394D01*
X005083Y001394D02*
X004929Y001240D01*
X004776Y001317D02*
X004699Y001240D01*
X004546Y001240D01*
X004469Y001317D01*
X004469Y001394D01*
X004546Y001471D01*
X004622Y001471D01*
X004546Y001471D02*
X004469Y001547D01*
X004469Y001624D01*
X004546Y001701D01*
X004699Y001701D01*
X004776Y001624D01*
X005236Y001701D02*
X005236Y001240D01*
D13*
X005240Y003688D02*
X005117Y003688D01*
X005055Y003750D01*
X004934Y003750D02*
X004872Y003688D01*
X004749Y003688D01*
X004687Y003750D01*
X004687Y003812D01*
X004749Y003873D01*
X004810Y003873D01*
X004749Y003873D02*
X004687Y003935D01*
X004687Y003997D01*
X004749Y004058D01*
X004872Y004058D01*
X004934Y003997D01*
X005055Y003997D02*
X005117Y004058D01*
X005240Y004058D01*
X005302Y003997D01*
X005302Y003750D01*
X005240Y003688D01*
X005705Y003859D02*
X005705Y004230D01*
X005891Y004045D01*
X005644Y004045D01*
X006012Y004168D02*
X006074Y004230D01*
X006197Y004230D01*
X006259Y004168D01*
X006259Y003921D01*
X006197Y003859D01*
X006074Y003859D01*
X006012Y003921D01*
X008041Y004946D02*
X008411Y004946D01*
X008411Y005132D01*
X008349Y005193D01*
X008226Y005193D01*
X008164Y005132D01*
X008164Y004946D01*
X008164Y005070D02*
X008041Y005193D01*
X008041Y005315D02*
X008288Y005562D01*
X008349Y005562D01*
X008411Y005500D01*
X008411Y005376D01*
X008349Y005315D01*
X008041Y005315D02*
X008041Y005562D01*
X009822Y005490D02*
X009822Y005243D01*
X009822Y005122D02*
X009945Y004999D01*
X009945Y005060D02*
X009945Y004875D01*
X009822Y004875D02*
X010192Y004875D01*
X010192Y005060D01*
X010131Y005122D01*
X010007Y005122D01*
X009945Y005060D01*
X010069Y005243D02*
X010192Y005367D01*
X009822Y005367D01*
X011783Y002785D02*
X011783Y002538D01*
X012029Y002785D01*
X012091Y002785D01*
X012153Y002724D01*
X012153Y002600D01*
X012091Y002538D01*
X012091Y002417D02*
X012153Y002355D01*
X012153Y002232D01*
X012091Y002170D01*
X011844Y002170D01*
X011783Y002232D01*
X011783Y002355D01*
X011844Y002417D01*
X011835Y001959D02*
X011773Y001897D01*
X011773Y001774D01*
X011835Y001712D01*
X011835Y001591D02*
X011773Y001529D01*
X011773Y001405D01*
X011835Y001344D01*
X012082Y001344D01*
X012143Y001405D01*
X012143Y001529D01*
X012082Y001591D01*
X012143Y001712D02*
X011958Y001712D01*
X012020Y001835D01*
X012020Y001897D01*
X011958Y001959D01*
X011835Y001959D01*
X012143Y001959D02*
X012143Y001712D01*
X010503Y001428D02*
X010503Y001181D01*
X010442Y001119D01*
X010318Y001119D01*
X010256Y001181D01*
X010135Y001119D02*
X009888Y001119D01*
X010012Y001119D02*
X010012Y001490D01*
X010135Y001366D01*
X010256Y001428D02*
X010318Y001490D01*
X010442Y001490D01*
X010503Y001428D01*
M02*
