G75*
G70*
%OFA0B0*%
%FSLAX24Y24*%
%IPPOS*%
%LPD*%
%AMOC8*
5,1,8,0,0,1.08239X$1,22.5*
%
%ADD10R,0.1701X0.1181*%
%ADD11R,0.0173X0.0644*%
%ADD12R,0.0394X0.0433*%
%ADD13R,0.0425X0.0413*%
%ADD14R,0.0413X0.0425*%
%ADD15R,0.0630X0.0512*%
%ADD16R,0.0433X0.0394*%
%ADD17C,0.0531*%
%ADD18C,0.0236*%
%ADD19C,0.0080*%
%ADD20C,0.0400*%
%ADD21C,0.0315*%
%ADD22C,0.0100*%
%ADD23C,0.0110*%
%ADD24C,0.0160*%
D10*
X008294Y003179D03*
D11*
X008421Y004380D03*
X008166Y004380D03*
X007910Y004380D03*
X007654Y004380D03*
X007398Y004380D03*
X007142Y004380D03*
X006886Y004380D03*
X008677Y004380D03*
X008933Y004380D03*
X009189Y004380D03*
X009445Y004380D03*
X009701Y004380D03*
X009701Y001979D03*
X009445Y001979D03*
X009189Y001979D03*
X008933Y001979D03*
X008677Y001979D03*
X008421Y001979D03*
X008166Y001979D03*
X007910Y001979D03*
X007654Y001979D03*
X007398Y001979D03*
X007142Y001979D03*
X006886Y001979D03*
D12*
X006105Y002321D03*
X005435Y002321D03*
X005518Y001423D03*
X006187Y001423D03*
X007063Y005252D03*
X007732Y005252D03*
X008855Y005252D03*
X009524Y005252D03*
X010475Y005214D03*
X011144Y005214D03*
D13*
X010209Y002453D03*
X010209Y001764D03*
X005699Y004543D03*
X005699Y005232D03*
D14*
X010760Y002439D03*
X011449Y002439D03*
X011481Y001510D03*
X010792Y001510D03*
D15*
X005085Y004427D03*
X005085Y005214D03*
D16*
X005416Y002852D03*
X006085Y002852D03*
D17*
X005794Y000833D03*
X006794Y000833D03*
X007794Y000833D03*
X008794Y000833D03*
X009794Y000833D03*
X010794Y000833D03*
X011794Y000833D03*
X011794Y005833D03*
X010794Y005833D03*
X009794Y005833D03*
X008794Y005833D03*
X007794Y005833D03*
X006794Y005833D03*
X005794Y005833D03*
X004794Y005833D03*
X004794Y000833D03*
D18*
X005292Y000984D03*
X005731Y001868D03*
X006626Y001622D03*
X006557Y001258D03*
X007305Y001258D03*
X008132Y001297D03*
X008309Y000707D03*
X007221Y002736D03*
X007014Y002903D03*
X007221Y003051D03*
X007014Y003218D03*
X006788Y003346D03*
X006561Y003228D03*
X006325Y003366D03*
X006571Y003494D03*
X006797Y003632D03*
X006571Y003770D03*
X006315Y003661D03*
X006059Y003770D03*
X006059Y003514D03*
X005833Y003366D03*
X006069Y003248D03*
X005803Y003642D03*
X005567Y003514D03*
X005311Y003268D03*
X005577Y003248D03*
X004839Y003602D03*
X004839Y003917D03*
X005114Y003927D03*
X005681Y004053D03*
X006059Y004055D03*
X006305Y003937D03*
X006571Y004026D03*
X006571Y004281D03*
X006305Y004213D03*
X007024Y003770D03*
X007250Y003632D03*
X007024Y003494D03*
X007240Y003346D03*
X007664Y003553D03*
X008286Y003545D03*
X008900Y003553D03*
X009337Y003494D03*
X009327Y003770D03*
X009583Y003632D03*
X009583Y003366D03*
X009337Y003218D03*
X009583Y003090D03*
X009839Y003218D03*
X010095Y003100D03*
X010341Y003218D03*
X010577Y003081D03*
X010794Y002923D03*
X011030Y003061D03*
X010813Y003218D03*
X010577Y003356D03*
X010813Y003494D03*
X011049Y003356D03*
X011049Y003651D03*
X010813Y003789D03*
X010577Y003651D03*
X010341Y003514D03*
X010095Y003651D03*
X010095Y003376D03*
X009839Y003504D03*
X009839Y003779D03*
X010095Y003927D03*
X010341Y003789D03*
X010577Y003927D03*
X010823Y004075D03*
X011049Y003927D03*
X011059Y004222D03*
X010823Y004370D03*
X010587Y004508D03*
X010823Y004646D03*
X011079Y004518D03*
X011420Y004675D03*
X011758Y004685D03*
X011748Y004419D03*
X011748Y004144D03*
X011758Y003878D03*
X011758Y003622D03*
X011758Y003366D03*
X011748Y003110D03*
X011738Y002854D03*
X010331Y004094D03*
X010331Y004370D03*
X010587Y004213D03*
X010297Y004781D03*
X009996Y005079D03*
X009443Y004837D03*
X008935Y004837D03*
X007656Y004837D03*
X007144Y004837D03*
X006282Y005510D03*
X006788Y003051D03*
X006479Y002852D03*
X006807Y002736D03*
X007679Y002821D03*
X008286Y002813D03*
X008923Y002805D03*
X009337Y002943D03*
X011321Y006100D03*
D19*
X009701Y004380D02*
X009701Y003640D01*
X008794Y002733D01*
X008394Y002733D01*
X008294Y003179D01*
X008244Y002883D01*
X007444Y002883D01*
X006886Y003440D01*
X006886Y004380D01*
X007654Y004380D02*
X007654Y004835D01*
X007656Y004837D01*
X006479Y002852D02*
X006223Y002852D01*
X006105Y002833D02*
X006085Y002852D01*
X006105Y002833D02*
X006105Y002321D01*
X006886Y001979D02*
X006886Y001882D01*
X006626Y001622D01*
X009445Y001979D02*
X009445Y002034D01*
D20*
X009185Y002823D02*
X009185Y003679D01*
X009195Y003679D01*
X009421Y003689D02*
X009421Y003777D01*
X009431Y003777D01*
X009421Y003689D02*
X009421Y003049D01*
X007355Y002783D02*
X007355Y003777D01*
X007364Y003777D01*
X006380Y005108D02*
X006075Y005114D01*
X005986Y005114D01*
X005699Y005232D01*
X005986Y005114D02*
X005085Y005214D01*
X005233Y005191D01*
X004959Y005191D01*
X004794Y005218D01*
X004794Y005833D01*
X005201Y004543D02*
X005085Y004427D01*
X005201Y004543D02*
X005699Y004543D01*
D21*
X006380Y005108D03*
D22*
X004573Y000495D02*
X004715Y000437D01*
X004872Y000437D01*
X005018Y000497D01*
X005129Y000608D01*
X005189Y000754D01*
X005189Y000911D01*
X005129Y001057D01*
X005018Y001168D01*
X004872Y001228D01*
X004769Y001228D01*
X004769Y002886D01*
X005688Y003805D01*
X005731Y003805D01*
X005822Y003843D01*
X005892Y003913D01*
X005929Y004004D01*
X005929Y004102D01*
X005895Y004187D01*
X005931Y004187D01*
X005970Y004197D01*
X006004Y004216D01*
X006032Y004244D01*
X006051Y004279D01*
X006062Y004317D01*
X006062Y004493D01*
X005749Y004493D01*
X005749Y004593D01*
X006062Y004593D01*
X006062Y004770D01*
X006058Y004784D01*
X006072Y004784D01*
X006439Y004777D01*
X006562Y004825D01*
X006656Y004916D01*
X006709Y005036D01*
X006711Y005167D01*
X006663Y005290D01*
X006572Y005384D01*
X006510Y005412D01*
X006530Y005460D01*
X006530Y005537D01*
X006569Y005497D01*
X006715Y005437D01*
X006716Y005437D01*
X006716Y005300D01*
X007014Y005300D01*
X007014Y005203D01*
X006716Y005203D01*
X006716Y005016D01*
X006726Y004977D01*
X006746Y004943D01*
X006774Y004915D01*
X006808Y004896D01*
X006846Y004885D01*
X006896Y004885D01*
X006896Y004852D01*
X006886Y004852D01*
X006780Y004852D01*
X006742Y004842D01*
X006707Y004822D01*
X006679Y004794D01*
X006660Y004760D01*
X006649Y004722D01*
X006649Y004380D01*
X006649Y004039D01*
X006660Y004000D01*
X006679Y003966D01*
X006707Y003938D01*
X006742Y003919D01*
X006780Y003908D01*
X006886Y003908D01*
X006886Y004380D01*
X006886Y004380D01*
X006886Y003908D01*
X006992Y003908D01*
X007031Y003919D01*
X007047Y003928D01*
X007282Y003928D01*
X007538Y003928D01*
X007794Y003928D01*
X008050Y003928D01*
X008306Y003928D01*
X008562Y003928D01*
X008818Y003928D01*
X009074Y003928D01*
X009330Y003928D01*
X009540Y003928D01*
X009556Y003919D01*
X009595Y003908D01*
X009701Y003908D01*
X009807Y003908D01*
X009846Y003919D01*
X009880Y003938D01*
X009908Y003966D01*
X009927Y004000D01*
X009938Y004039D01*
X009938Y004380D01*
X009701Y004380D01*
X009701Y003908D01*
X009701Y004380D01*
X009701Y004380D01*
X009701Y004380D01*
X009938Y004380D01*
X009938Y004722D01*
X009927Y004760D01*
X009908Y004794D01*
X009880Y004822D01*
X009846Y004842D01*
X009807Y004852D01*
X009701Y004852D01*
X009691Y004852D01*
X009691Y004885D01*
X009741Y004885D01*
X009779Y004896D01*
X009813Y004915D01*
X009841Y004943D01*
X009861Y004977D01*
X009871Y005016D01*
X009871Y005203D01*
X009573Y005203D01*
X009573Y005300D01*
X009871Y005300D01*
X009871Y005437D01*
X009872Y005437D01*
X010018Y005497D01*
X010129Y005608D01*
X010189Y005754D01*
X010189Y005911D01*
X010129Y006057D01*
X010108Y006078D01*
X010479Y006078D01*
X010458Y006057D01*
X010398Y005911D01*
X010398Y005754D01*
X010458Y005608D01*
X010506Y005561D01*
X010224Y005561D01*
X010148Y005485D01*
X010148Y005300D01*
X010117Y005269D01*
X010117Y005258D01*
X010110Y005249D01*
X010117Y005185D01*
X010117Y004952D01*
X010087Y004922D01*
X010049Y004831D01*
X010049Y004732D01*
X010087Y004641D01*
X010157Y004571D01*
X010248Y004533D01*
X010347Y004533D01*
X010438Y004571D01*
X010508Y004641D01*
X010546Y004732D01*
X010546Y004831D01*
X010530Y004868D01*
X010725Y004868D01*
X010801Y004944D01*
X010801Y004962D01*
X010807Y004940D01*
X010827Y004906D01*
X010855Y004878D01*
X010889Y004858D01*
X010927Y004848D01*
X011095Y004848D01*
X011095Y005166D01*
X011192Y005166D01*
X011192Y004848D01*
X011242Y004848D01*
X011209Y004816D01*
X011171Y004724D01*
X011171Y004626D01*
X011209Y004535D01*
X011269Y004475D01*
X011269Y002781D01*
X011189Y002781D01*
X011112Y002705D01*
X011112Y002172D01*
X011189Y002096D01*
X011710Y002096D01*
X011786Y002172D01*
X011786Y002705D01*
X011710Y002781D01*
X011629Y002781D01*
X011629Y004534D01*
X011630Y004535D01*
X011668Y004626D01*
X011668Y004724D01*
X011630Y004816D01*
X011560Y004885D01*
X011470Y004923D01*
X011481Y004940D01*
X011491Y004978D01*
X011491Y005166D01*
X011193Y005166D01*
X011193Y005263D01*
X011491Y005263D01*
X011491Y005451D01*
X011481Y005489D01*
X011461Y005523D01*
X011433Y005551D01*
X011399Y005571D01*
X011361Y005581D01*
X011192Y005581D01*
X011192Y005263D01*
X011095Y005263D01*
X011095Y005575D01*
X011129Y005608D01*
X011189Y005754D01*
X011189Y005886D01*
X011272Y005852D01*
X011370Y005852D01*
X011462Y005890D01*
X011531Y005960D01*
X011569Y006051D01*
X011569Y006150D01*
X011531Y006241D01*
X011513Y006259D01*
X011902Y006259D01*
X011942Y006255D01*
X012016Y006224D01*
X012073Y006167D01*
X012104Y006093D01*
X012108Y006053D01*
X012108Y006026D01*
X012108Y005975D01*
X012108Y001078D01*
X012018Y001168D01*
X011872Y001228D01*
X011821Y001228D01*
X011827Y001239D01*
X011837Y001277D01*
X011837Y001460D01*
X011531Y001460D01*
X011531Y001560D01*
X011837Y001560D01*
X011837Y001742D01*
X011827Y001780D01*
X011807Y001814D01*
X011779Y001842D01*
X011745Y001862D01*
X011707Y001872D01*
X011530Y001872D01*
X011530Y001560D01*
X011431Y001560D01*
X011431Y001872D01*
X011254Y001872D01*
X011216Y001862D01*
X011182Y001842D01*
X011154Y001814D01*
X011134Y001780D01*
X011128Y001758D01*
X011128Y001776D01*
X011052Y001852D01*
X010869Y001852D01*
X010867Y001859D01*
X010826Y001880D01*
X010793Y001912D01*
X010762Y001912D01*
X010734Y001926D01*
X010690Y001912D01*
X010644Y001912D01*
X010622Y001890D01*
X010592Y001880D01*
X010578Y001852D01*
X010552Y001852D01*
X010552Y002024D01*
X010476Y002100D01*
X010183Y002100D01*
X010172Y002116D01*
X010476Y002116D01*
X010478Y002118D01*
X010500Y002096D01*
X011021Y002096D01*
X011097Y002172D01*
X011097Y002705D01*
X011021Y002781D01*
X010790Y002781D01*
X010777Y002795D01*
X010755Y002836D01*
X010726Y002845D01*
X010705Y002867D01*
X010691Y002867D01*
X010541Y003016D01*
X010392Y003016D01*
X009605Y003016D01*
X009499Y002911D01*
X009294Y002706D01*
X009294Y003129D01*
X008344Y003129D01*
X008344Y003229D01*
X009294Y003229D01*
X009294Y003790D01*
X009284Y003828D01*
X009264Y003862D01*
X009236Y003890D01*
X009202Y003910D01*
X009164Y003920D01*
X008343Y003920D01*
X008343Y003230D01*
X008244Y003230D01*
X008244Y003920D01*
X007423Y003920D01*
X007385Y003910D01*
X007351Y003890D01*
X007323Y003862D01*
X007303Y003828D01*
X007293Y003790D01*
X007293Y003229D01*
X008243Y003229D01*
X008243Y003129D01*
X007293Y003129D01*
X007293Y002619D01*
X006711Y002619D01*
X006653Y002676D01*
X006689Y002712D01*
X006727Y002803D01*
X006727Y002902D01*
X006689Y002993D01*
X006619Y003063D01*
X006528Y003100D01*
X006431Y003100D01*
X006431Y003103D01*
X006355Y003179D01*
X005814Y003179D01*
X005761Y003126D01*
X005752Y003141D01*
X005724Y003169D01*
X005690Y003189D01*
X005652Y003199D01*
X005464Y003199D01*
X005464Y002901D01*
X005367Y002901D01*
X005367Y003199D01*
X005179Y003199D01*
X005141Y003189D01*
X005107Y003169D01*
X005079Y003141D01*
X005059Y003107D01*
X005049Y003069D01*
X005049Y002901D01*
X005367Y002901D01*
X005367Y002804D01*
X005049Y002804D01*
X005049Y002636D01*
X005059Y002598D01*
X005079Y002563D01*
X005107Y002535D01*
X005108Y002535D01*
X005108Y002050D01*
X005185Y001974D01*
X005506Y001974D01*
X005482Y001917D01*
X005482Y001819D01*
X005520Y001727D01*
X005566Y001681D01*
X005566Y001472D01*
X005469Y001472D01*
X005469Y001375D01*
X005171Y001375D01*
X005171Y001187D01*
X005181Y001149D01*
X005201Y001114D01*
X005229Y001087D01*
X005263Y001067D01*
X005301Y001057D01*
X005458Y001057D01*
X005398Y000911D01*
X005398Y000754D01*
X005458Y000608D01*
X005569Y000497D01*
X005715Y000437D01*
X005872Y000437D01*
X006018Y000497D01*
X006129Y000608D01*
X006189Y000754D01*
X006189Y000911D01*
X006129Y001057D01*
X006109Y001077D01*
X006388Y001077D01*
X006417Y001047D01*
X006449Y001034D01*
X006398Y000911D01*
X006398Y000754D01*
X006458Y000608D01*
X006569Y000497D01*
X006715Y000437D01*
X006872Y000437D01*
X007018Y000497D01*
X007086Y000565D01*
X007086Y000553D01*
X007225Y000414D01*
X004734Y000414D01*
X004694Y000418D01*
X004620Y000449D01*
X004573Y000495D01*
X004663Y000431D02*
X007208Y000431D01*
X007110Y000530D02*
X007050Y000530D01*
X007266Y000628D02*
X007463Y000431D01*
X010392Y000431D01*
X010794Y000833D01*
X011065Y001121D02*
X011522Y001121D01*
X011530Y001147D02*
X011549Y001147D01*
X011458Y001057D01*
X011398Y000911D01*
X011398Y000754D01*
X011458Y000608D01*
X011569Y000497D01*
X011715Y000437D01*
X011872Y000437D01*
X012018Y000497D01*
X012104Y000584D01*
X012104Y000580D01*
X012073Y000506D01*
X012016Y000449D01*
X011942Y000418D01*
X011902Y000414D01*
X010629Y000414D01*
X010671Y000455D01*
X010715Y000437D01*
X010872Y000437D01*
X011018Y000497D01*
X011129Y000608D01*
X011189Y000754D01*
X011189Y000911D01*
X011129Y001057D01*
X011019Y001167D01*
X011052Y001167D01*
X011128Y001243D01*
X011128Y001261D01*
X011134Y001239D01*
X011154Y001205D01*
X011182Y001177D01*
X011216Y001157D01*
X011254Y001147D01*
X011431Y001147D01*
X011431Y001460D01*
X011530Y001460D01*
X011530Y001147D01*
X011530Y001219D02*
X011431Y001219D01*
X011431Y001318D02*
X011530Y001318D01*
X011530Y001417D02*
X011431Y001417D01*
X011531Y001515D02*
X012108Y001515D01*
X012108Y001417D02*
X011837Y001417D01*
X011837Y001318D02*
X012108Y001318D01*
X012108Y001219D02*
X011894Y001219D01*
X012065Y001121D02*
X012108Y001121D01*
X012108Y001614D02*
X011837Y001614D01*
X011837Y001712D02*
X012108Y001712D01*
X012108Y001811D02*
X011809Y001811D01*
X011530Y001811D02*
X011431Y001811D01*
X011431Y001712D02*
X011530Y001712D01*
X011530Y001614D02*
X011431Y001614D01*
X011152Y001811D02*
X011094Y001811D01*
X010796Y001909D02*
X012108Y001909D01*
X012108Y002008D02*
X010552Y002008D01*
X010552Y001909D02*
X010641Y001909D01*
X010719Y001732D02*
X010792Y001510D01*
X010719Y001466D02*
X010719Y001732D01*
X010719Y001466D02*
X010577Y001325D01*
X009947Y001325D01*
X009853Y001419D01*
X009081Y001419D01*
X008933Y001567D01*
X008933Y001979D01*
X008677Y001979D02*
X008677Y001311D01*
X008506Y001140D01*
X008368Y001140D01*
X008309Y001081D01*
X008309Y000707D01*
X008152Y001297D02*
X008421Y001567D01*
X008421Y001979D01*
X008171Y001985D02*
X008166Y001979D01*
X008171Y001985D02*
X008171Y002419D01*
X008152Y002439D01*
X007699Y002439D01*
X007654Y002394D01*
X007654Y001979D01*
X007398Y001979D01*
X007398Y002366D01*
X007325Y002439D01*
X006636Y002439D01*
X006223Y002852D01*
X006183Y002892D01*
X006085Y002852D01*
X005967Y002734D01*
X005464Y002993D02*
X005367Y002993D01*
X005367Y002895D02*
X004778Y002895D01*
X004769Y002796D02*
X005049Y002796D01*
X005049Y002698D02*
X004769Y002698D01*
X004769Y002599D02*
X005059Y002599D01*
X005108Y002501D02*
X004769Y002501D01*
X004769Y002402D02*
X005108Y002402D01*
X005108Y002303D02*
X004769Y002303D01*
X004769Y002205D02*
X005108Y002205D01*
X005108Y002106D02*
X004769Y002106D01*
X004769Y002008D02*
X005151Y002008D01*
X005263Y001779D02*
X005229Y001760D01*
X005201Y001732D01*
X005181Y001698D01*
X005171Y001659D01*
X005171Y001472D01*
X005469Y001472D01*
X005469Y001790D01*
X005301Y001790D01*
X005263Y001779D01*
X005190Y001712D02*
X004769Y001712D01*
X004769Y001614D02*
X005171Y001614D01*
X005171Y001515D02*
X004769Y001515D01*
X004769Y001417D02*
X005469Y001417D01*
X005469Y001515D02*
X005566Y001515D01*
X005566Y001614D02*
X005469Y001614D01*
X005469Y001712D02*
X005535Y001712D01*
X005486Y001811D02*
X004769Y001811D01*
X004769Y001909D02*
X005482Y001909D01*
X005731Y001868D02*
X005731Y002026D01*
X005435Y002321D01*
X005049Y002993D02*
X004876Y002993D01*
X004975Y003092D02*
X005055Y003092D01*
X005073Y003190D02*
X005147Y003190D01*
X005172Y003289D02*
X007293Y003289D01*
X007293Y003387D02*
X005270Y003387D01*
X005369Y003486D02*
X007293Y003486D01*
X007293Y003585D02*
X005467Y003585D01*
X005566Y003683D02*
X007293Y003683D01*
X007293Y003782D02*
X005664Y003782D01*
X005859Y003880D02*
X007341Y003880D01*
X006886Y003979D02*
X006886Y003979D01*
X006886Y004077D02*
X006886Y004077D01*
X006886Y004176D02*
X006886Y004176D01*
X006886Y004274D02*
X006886Y004274D01*
X006886Y004373D02*
X006886Y004373D01*
X006886Y004380D02*
X006649Y004380D01*
X006886Y004380D01*
X006886Y004380D01*
X006886Y004381D02*
X006886Y004852D01*
X006886Y004381D01*
X006886Y004381D01*
X006886Y004471D02*
X006886Y004471D01*
X006886Y004570D02*
X006886Y004570D01*
X006886Y004669D02*
X006886Y004669D01*
X006886Y004767D02*
X006886Y004767D01*
X006896Y004866D02*
X006604Y004866D01*
X006664Y004767D02*
X006062Y004767D01*
X006062Y004669D02*
X006649Y004669D01*
X006649Y004570D02*
X005749Y004570D01*
X006062Y004471D02*
X006649Y004471D01*
X006649Y004373D02*
X006062Y004373D01*
X006049Y004274D02*
X006649Y004274D01*
X006649Y004176D02*
X005899Y004176D01*
X005929Y004077D02*
X006649Y004077D01*
X006672Y003979D02*
X005919Y003979D01*
X005681Y004053D02*
X004589Y002961D01*
X004589Y001120D01*
X004794Y000915D01*
X004794Y000833D01*
X005065Y001121D02*
X005197Y001121D01*
X005171Y001219D02*
X004894Y001219D01*
X004769Y001318D02*
X005171Y001318D01*
X005143Y001022D02*
X005444Y001022D01*
X005403Y000924D02*
X005184Y000924D01*
X005189Y000825D02*
X005398Y000825D01*
X005409Y000727D02*
X005178Y000727D01*
X005137Y000628D02*
X005450Y000628D01*
X005537Y000530D02*
X005050Y000530D01*
X006050Y000530D02*
X006537Y000530D01*
X006450Y000628D02*
X006137Y000628D01*
X006178Y000727D02*
X006409Y000727D01*
X006398Y000825D02*
X006189Y000825D01*
X006184Y000924D02*
X006403Y000924D01*
X006444Y001022D02*
X006143Y001022D01*
X006069Y001352D02*
X006557Y001258D01*
X006187Y001423D02*
X006069Y001352D01*
X006971Y001337D02*
X006971Y001238D01*
X007266Y000943D01*
X007266Y000628D01*
X007305Y001258D02*
X007483Y001474D01*
X007837Y001474D01*
X007910Y001547D01*
X007910Y001979D01*
X008343Y002502D02*
X008246Y002599D01*
X008343Y002599D01*
X008246Y002599D02*
X008244Y002602D01*
X008244Y003129D01*
X008343Y003129D01*
X008343Y002502D01*
X008343Y002698D02*
X008244Y002698D01*
X008244Y002796D02*
X008343Y002796D01*
X008343Y002895D02*
X008244Y002895D01*
X008244Y002993D02*
X008343Y002993D01*
X008343Y003092D02*
X008244Y003092D01*
X008243Y003190D02*
X005684Y003190D01*
X005464Y003190D02*
X005367Y003190D01*
X005367Y003092D02*
X005464Y003092D01*
X004860Y003486D02*
X004529Y003486D01*
X004529Y003387D02*
X004761Y003387D01*
X004663Y003289D02*
X004529Y003289D01*
X004529Y003190D02*
X004564Y003190D01*
X004529Y003155D02*
X004529Y005017D01*
X004541Y005004D01*
X004563Y004973D01*
X004587Y004958D01*
X004607Y004939D01*
X004640Y004925D01*
X004640Y004905D01*
X004716Y004829D01*
X004734Y004829D01*
X004712Y004823D01*
X004678Y004803D01*
X004650Y004775D01*
X004630Y004741D01*
X004620Y004703D01*
X004620Y004477D01*
X005035Y004477D01*
X005035Y004377D01*
X005135Y004377D01*
X005135Y004021D01*
X005395Y004021D01*
X004529Y003155D01*
X004529Y003585D02*
X004958Y003585D01*
X005057Y003683D02*
X004529Y003683D01*
X004529Y003782D02*
X005155Y003782D01*
X005254Y003880D02*
X004529Y003880D01*
X004529Y003979D02*
X005352Y003979D01*
X005135Y004077D02*
X005035Y004077D01*
X005035Y004021D02*
X005035Y004377D01*
X004620Y004377D01*
X004620Y004151D01*
X004630Y004113D01*
X004650Y004079D01*
X004678Y004051D01*
X004712Y004031D01*
X004750Y004021D01*
X005035Y004021D01*
X005035Y004176D02*
X005135Y004176D01*
X005135Y004274D02*
X005035Y004274D01*
X005035Y004373D02*
X005135Y004373D01*
X005035Y004471D02*
X004529Y004471D01*
X004529Y004373D02*
X004620Y004373D01*
X004620Y004274D02*
X004529Y004274D01*
X004529Y004176D02*
X004620Y004176D01*
X004652Y004077D02*
X004529Y004077D01*
X004529Y004570D02*
X004620Y004570D01*
X004620Y004669D02*
X004529Y004669D01*
X004529Y004767D02*
X004645Y004767D01*
X004679Y004866D02*
X004529Y004866D01*
X004529Y004964D02*
X004578Y004964D01*
X005124Y005600D02*
X005124Y005603D01*
X005129Y005608D01*
X005189Y005754D01*
X005189Y005911D01*
X005129Y006057D01*
X005018Y006168D01*
X004872Y006228D01*
X004715Y006228D01*
X004569Y006168D01*
X004559Y006158D01*
X004563Y006167D01*
X004620Y006224D01*
X004694Y006255D01*
X004734Y006259D01*
X004787Y006259D01*
X004812Y006259D01*
X006304Y006259D01*
X006187Y006142D01*
X006082Y006037D01*
X006082Y005661D01*
X006071Y005650D01*
X006034Y005559D01*
X006034Y005501D01*
X005965Y005569D01*
X005485Y005569D01*
X005454Y005600D01*
X005124Y005600D01*
X005148Y005654D02*
X006075Y005654D01*
X006082Y005752D02*
X005189Y005752D01*
X005189Y005851D02*
X006082Y005851D01*
X006082Y005950D02*
X005173Y005950D01*
X005133Y006048D02*
X006093Y006048D01*
X006192Y006147D02*
X005039Y006147D01*
X004671Y006245D02*
X006290Y006245D01*
X006557Y006258D02*
X006262Y005963D01*
X006262Y005529D01*
X006282Y005510D01*
X006034Y005555D02*
X005979Y005555D01*
X006528Y005457D02*
X006666Y005457D01*
X006716Y005358D02*
X006597Y005358D01*
X006675Y005260D02*
X007014Y005260D01*
X006716Y005161D02*
X006711Y005161D01*
X006709Y005063D02*
X006716Y005063D01*
X006734Y004964D02*
X006677Y004964D01*
X007142Y004835D02*
X007144Y004837D01*
X007142Y004835D02*
X007142Y004380D01*
X008244Y003880D02*
X008343Y003880D01*
X008343Y003782D02*
X008244Y003782D01*
X008244Y003683D02*
X008343Y003683D01*
X008343Y003585D02*
X008244Y003585D01*
X008244Y003486D02*
X008343Y003486D01*
X008343Y003387D02*
X008244Y003387D01*
X008244Y003289D02*
X008343Y003289D01*
X008344Y003190D02*
X011269Y003190D01*
X011269Y003092D02*
X009294Y003092D01*
X009294Y002993D02*
X009582Y002993D01*
X009483Y002895D02*
X009294Y002895D01*
X009294Y002796D02*
X009385Y002796D01*
X009679Y002837D02*
X010467Y002837D01*
X010616Y002687D01*
X010630Y002687D01*
X010760Y002439D01*
X011097Y002402D02*
X011112Y002402D01*
X011112Y002303D02*
X011097Y002303D01*
X011097Y002205D02*
X011112Y002205D01*
X011178Y002106D02*
X011031Y002106D01*
X011449Y002439D02*
X011449Y004646D01*
X011420Y004675D01*
X011650Y004767D02*
X012108Y004767D01*
X012108Y004669D02*
X011668Y004669D01*
X011644Y004570D02*
X012108Y004570D01*
X012108Y004471D02*
X011629Y004471D01*
X011629Y004373D02*
X012108Y004373D01*
X012108Y004274D02*
X011629Y004274D01*
X011629Y004176D02*
X012108Y004176D01*
X012108Y004077D02*
X011629Y004077D01*
X011629Y003979D02*
X012108Y003979D01*
X012108Y003880D02*
X011629Y003880D01*
X011629Y003782D02*
X012108Y003782D01*
X012108Y003683D02*
X011629Y003683D01*
X011629Y003585D02*
X012108Y003585D01*
X012108Y003486D02*
X011629Y003486D01*
X011629Y003387D02*
X012108Y003387D01*
X012108Y003289D02*
X011629Y003289D01*
X011629Y003190D02*
X012108Y003190D01*
X012108Y003092D02*
X011629Y003092D01*
X011629Y002993D02*
X012108Y002993D01*
X012108Y002895D02*
X011629Y002895D01*
X011629Y002796D02*
X012108Y002796D01*
X012108Y002698D02*
X011786Y002698D01*
X011786Y002599D02*
X012108Y002599D01*
X012108Y002501D02*
X011786Y002501D01*
X011786Y002402D02*
X012108Y002402D01*
X012108Y002303D02*
X011786Y002303D01*
X011786Y002205D02*
X012108Y002205D01*
X012108Y002106D02*
X011720Y002106D01*
X011112Y002501D02*
X011097Y002501D01*
X011097Y002599D02*
X011112Y002599D01*
X011112Y002698D02*
X011097Y002698D01*
X011269Y002796D02*
X010776Y002796D01*
X010663Y002895D02*
X011269Y002895D01*
X011269Y002993D02*
X010565Y002993D01*
X010209Y002453D02*
X010129Y002459D01*
X009569Y002459D01*
X009445Y002335D01*
X009445Y002034D01*
X009189Y001979D02*
X009189Y002346D01*
X009679Y002837D01*
X009294Y003289D02*
X011269Y003289D01*
X011269Y003387D02*
X009294Y003387D01*
X009294Y003486D02*
X011269Y003486D01*
X011269Y003585D02*
X009294Y003585D01*
X009294Y003683D02*
X011269Y003683D01*
X011269Y003782D02*
X009294Y003782D01*
X009246Y003880D02*
X011269Y003880D01*
X011269Y003979D02*
X009915Y003979D01*
X009938Y004077D02*
X011269Y004077D01*
X011269Y004176D02*
X009938Y004176D01*
X009938Y004274D02*
X011269Y004274D01*
X011269Y004373D02*
X009938Y004373D01*
X009938Y004471D02*
X011269Y004471D01*
X011194Y004570D02*
X010435Y004570D01*
X010519Y004669D02*
X011171Y004669D01*
X011189Y004767D02*
X010546Y004767D01*
X010531Y004866D02*
X010876Y004866D01*
X011095Y004866D02*
X011192Y004866D01*
X011192Y004964D02*
X011095Y004964D01*
X011095Y005063D02*
X011192Y005063D01*
X011192Y005161D02*
X011095Y005161D01*
X011193Y005260D02*
X012108Y005260D01*
X012108Y005358D02*
X011491Y005358D01*
X011489Y005457D02*
X012108Y005457D01*
X012108Y005555D02*
X011425Y005555D01*
X011192Y005555D02*
X011095Y005555D01*
X011095Y005457D02*
X011192Y005457D01*
X011192Y005358D02*
X011095Y005358D01*
X011148Y005654D02*
X012108Y005654D01*
X012108Y005752D02*
X011189Y005752D01*
X011189Y005851D02*
X012108Y005851D01*
X012108Y005950D02*
X011521Y005950D01*
X011568Y006048D02*
X012108Y006048D01*
X012082Y006147D02*
X011569Y006147D01*
X011527Y006245D02*
X011966Y006245D01*
X011321Y006140D02*
X011321Y006100D01*
X011321Y006140D02*
X011203Y006258D01*
X006557Y006258D01*
X008933Y004835D02*
X008935Y004837D01*
X008933Y004835D02*
X008933Y004380D01*
X009195Y003679D02*
X009421Y003689D01*
X009701Y003979D02*
X009701Y003979D01*
X009701Y004077D02*
X009701Y004077D01*
X009701Y004176D02*
X009701Y004176D01*
X009701Y004274D02*
X009701Y004274D01*
X009701Y004373D02*
X009701Y004373D01*
X009701Y004381D02*
X009701Y004852D01*
X009701Y004381D01*
X009701Y004381D01*
X009701Y004471D02*
X009701Y004471D01*
X009701Y004570D02*
X009701Y004570D01*
X009701Y004669D02*
X009701Y004669D01*
X009701Y004767D02*
X009701Y004767D01*
X009691Y004866D02*
X010064Y004866D01*
X010049Y004767D02*
X009923Y004767D01*
X009938Y004669D02*
X010076Y004669D01*
X010160Y004570D02*
X009938Y004570D01*
X010297Y004781D02*
X010297Y005195D01*
X010475Y005214D01*
X010148Y005358D02*
X009871Y005358D01*
X009921Y005457D02*
X010148Y005457D01*
X010218Y005555D02*
X010076Y005555D01*
X010148Y005654D02*
X010439Y005654D01*
X010398Y005752D02*
X010189Y005752D01*
X010189Y005851D02*
X010398Y005851D01*
X010414Y005950D02*
X010173Y005950D01*
X010133Y006048D02*
X010454Y006048D01*
X010117Y005260D02*
X009573Y005260D01*
X009871Y005161D02*
X010117Y005161D01*
X010117Y005063D02*
X009871Y005063D01*
X009853Y004964D02*
X010117Y004964D01*
X011487Y004964D02*
X012108Y004964D01*
X012108Y004866D02*
X011580Y004866D01*
X011491Y005063D02*
X012108Y005063D01*
X012108Y005161D02*
X011491Y005161D01*
X010489Y002106D02*
X010179Y002106D01*
X010049Y001979D02*
X010209Y001764D01*
X010049Y001979D02*
X009701Y001979D01*
X011104Y001219D02*
X011145Y001219D01*
X011143Y001022D02*
X011444Y001022D01*
X011403Y000924D02*
X011184Y000924D01*
X011189Y000825D02*
X011398Y000825D01*
X011409Y000727D02*
X011178Y000727D01*
X011137Y000628D02*
X011450Y000628D01*
X011537Y000530D02*
X011050Y000530D01*
X010647Y000431D02*
X011974Y000431D01*
X012050Y000530D02*
X012083Y000530D01*
X008152Y001297D02*
X008132Y001297D01*
X007142Y001508D02*
X006971Y001337D01*
X007142Y001508D02*
X007142Y001979D01*
X007293Y002698D02*
X006675Y002698D01*
X006724Y002796D02*
X007293Y002796D01*
X007355Y002783D02*
X007444Y002883D01*
X007293Y002895D02*
X006727Y002895D01*
X006688Y002993D02*
X007293Y002993D01*
X007293Y003092D02*
X006549Y003092D01*
D23*
X006886Y004380D02*
X006886Y005051D01*
X007398Y005640D02*
X007398Y004380D01*
X007910Y004380D02*
X007910Y004992D01*
X008677Y005118D02*
X008677Y004380D01*
X009189Y004380D02*
X009189Y005646D01*
X009701Y005028D02*
X009701Y004380D01*
X009445Y004380D02*
X009447Y004303D01*
X009443Y004837D01*
D24*
X009701Y005028D02*
X009524Y005252D01*
X009189Y005646D02*
X009334Y005792D01*
X009634Y005792D01*
X009794Y005833D01*
X008794Y005833D02*
X008421Y005461D01*
X008421Y004380D01*
X008166Y004380D02*
X008166Y005461D01*
X007794Y005833D01*
X007398Y005640D02*
X007305Y005733D01*
X006894Y005733D01*
X006794Y005833D01*
X007063Y005252D02*
X006886Y005051D01*
X007732Y005252D02*
X007910Y004992D01*
X008677Y005118D02*
X008855Y005252D01*
M02*
