%
M48
M72
T01C0.0118
T02C0.0197
T03C0.0354
%
T01
X4839Y3602
X4839Y3917
X5114Y3927
X5681Y4053
X6059Y4055
X6305Y3937
X6571Y4026
X6571Y4281
X6305Y4213
X6059Y3770
X6059Y3514
X5833Y3366
X6069Y3248
X6325Y3366
X6561Y3228
X6788Y3346
X7014Y3218
X7240Y3346
X7024Y3494
X7250Y3632
X7024Y3770
X6797Y3632
X6571Y3770
X6571Y3494
X6315Y3661
X5803Y3642
X5567Y3514
X5311Y3268
X5577Y3248
X6479Y2852
X6788Y3051
X7014Y2903
X7221Y3051
X7221Y2736
X6807Y2736
X7679Y2821
X8286Y2813
X8923Y2805
X9337Y2943
X9583Y3090
X9337Y3218
X9583Y3366
X9583Y3632
X9337Y3494
X9327Y3770
X8900Y3553
X8286Y3545
X7664Y3553
X7656Y4837
X7144Y4837
X6282Y5510
X8935Y4837
X9443Y4837
X9996Y5079
X10297Y4781
X10587Y4508
X10823Y4646
X11079Y4518
X10823Y4370
X11059Y4222
X10823Y4075
X11049Y3927
X10813Y3789
X10577Y3651
X10341Y3514
X10095Y3651
X10095Y3376
X9839Y3504
X9839Y3779
X10095Y3927
X10341Y3789
X10577Y3927
X10331Y4094
X10331Y4370
X10587Y4213
X11049Y3651
X10813Y3494
X10577Y3356
X10341Y3218
X10095Y3100
X9839Y3218
X10577Y3081
X10794Y2923
X11030Y3061
X10813Y3218
X11049Y3356
X11758Y3366
X11758Y3622
X11758Y3878
X11748Y4144
X11748Y4419
X11758Y4685
X11420Y4675
X11321Y6100
X11748Y3110
X11738Y2854
X8309Y707
X8132Y1297
X7305Y1258
X6557Y1258
X6626Y1622
X5731Y1868
X5292Y984
T02
X6380Y5108
T03
X4794Y833
X5794Y833
X6794Y833
X7794Y833
X8794Y833
X9794Y833
X10794Y833
X11794Y833
X11794Y5833
X10794Y5833
X9794Y5833
X8794Y5833
X7794Y5833
X6794Y5833
X5794Y5833
X4794Y5833
M30
