G75*
G70*
%OFA0B0*%
%FSLAX24Y24*%
%IPPOS*%
%LPD*%
%AMOC8*
5,1,8,0,0,1.08239X$1,22.5*
%
%ADD10R,0.1683X0.0482*%
%ADD11R,0.0423X0.1161*%
%ADD12R,0.0384X0.1161*%
%ADD13R,0.0118X0.1171*%
%ADD14R,0.0108X0.1191*%
%ADD15R,0.1565X0.0089*%
%ADD16R,0.1703X0.0108*%
%ADD17R,0.0213X0.0684*%
%ADD18R,0.0434X0.0473*%
%ADD19R,0.0465X0.0453*%
%ADD20R,0.0453X0.0465*%
%ADD21R,0.0670X0.0552*%
%ADD22R,0.0473X0.0434*%
%ADD23C,0.0571*%
D10*
X008304Y003172D03*
D11*
X007980Y003187D03*
D12*
X008609Y003187D03*
D13*
X009087Y003182D03*
D14*
X007497Y003172D03*
D15*
X008304Y003723D03*
D16*
X008304Y002641D03*
D17*
X008421Y001979D03*
X008166Y001979D03*
X007910Y001979D03*
X007654Y001979D03*
X007398Y001979D03*
X007142Y001979D03*
X006886Y001979D03*
X008677Y001979D03*
X008933Y001979D03*
X009189Y001979D03*
X009445Y001979D03*
X009701Y001979D03*
X009701Y004380D03*
X009445Y004380D03*
X009189Y004380D03*
X008933Y004380D03*
X008677Y004380D03*
X008421Y004380D03*
X008166Y004380D03*
X007910Y004380D03*
X007654Y004380D03*
X007398Y004380D03*
X007142Y004380D03*
X006886Y004380D03*
D18*
X007063Y005252D03*
X007732Y005252D03*
X008855Y005252D03*
X009524Y005252D03*
X010475Y005214D03*
X011144Y005214D03*
X006187Y001423D03*
X005518Y001423D03*
X005435Y002321D03*
X006105Y002321D03*
D19*
X005699Y004543D03*
X005699Y005232D03*
X010209Y002453D03*
X010209Y001764D03*
D20*
X010792Y001510D03*
X011481Y001510D03*
X011449Y002439D03*
X010760Y002439D03*
D21*
X005085Y004427D03*
X005085Y005214D03*
D22*
X005416Y002852D03*
X006085Y002852D03*
D23*
X004794Y000833D03*
X005794Y000833D03*
X006794Y000833D03*
X007794Y000833D03*
X008794Y000833D03*
X009794Y000833D03*
X010794Y000833D03*
X011794Y000833D03*
X011794Y005833D03*
X010794Y005833D03*
X009794Y005833D03*
X008794Y005833D03*
X007794Y005833D03*
X006794Y005833D03*
X005794Y005833D03*
X004794Y005833D03*
M02*
