G75*
G70*
%OFA0B0*%
%FSLAX24Y24*%
%IPPOS*%
%LPD*%
%AMOC8*
5,1,8,0,0,1.08239X$1,22.5*
%
%ADD10C,0.0000*%
%ADD11C,0.0070*%
%ADD12C,0.0100*%
%ADD13C,0.0050*%
%ADD14C,0.0060*%
D10*
X004341Y000620D02*
X004341Y006053D01*
X004340Y006053D02*
X004342Y006092D01*
X004348Y006130D01*
X004357Y006167D01*
X004370Y006204D01*
X004387Y006239D01*
X004406Y006272D01*
X004429Y006303D01*
X004455Y006332D01*
X004484Y006358D01*
X004515Y006381D01*
X004548Y006400D01*
X004583Y006417D01*
X004620Y006430D01*
X004657Y006439D01*
X004695Y006445D01*
X004734Y006447D01*
X011902Y006447D01*
X011941Y006445D01*
X011979Y006439D01*
X012016Y006430D01*
X012053Y006417D01*
X012088Y006400D01*
X012121Y006381D01*
X012152Y006358D01*
X012181Y006332D01*
X012207Y006303D01*
X012230Y006272D01*
X012249Y006239D01*
X012266Y006204D01*
X012279Y006167D01*
X012288Y006130D01*
X012294Y006092D01*
X012296Y006053D01*
X012296Y000620D01*
X012294Y000581D01*
X012288Y000543D01*
X012279Y000506D01*
X012266Y000469D01*
X012249Y000434D01*
X012230Y000401D01*
X012207Y000370D01*
X012181Y000341D01*
X012152Y000315D01*
X012121Y000292D01*
X012088Y000273D01*
X012053Y000256D01*
X012016Y000243D01*
X011979Y000234D01*
X011941Y000228D01*
X011902Y000226D01*
X004734Y000226D01*
X004695Y000228D01*
X004657Y000234D01*
X004620Y000243D01*
X004583Y000256D01*
X004548Y000273D01*
X004515Y000292D01*
X004484Y000315D01*
X004455Y000341D01*
X004429Y000370D01*
X004406Y000401D01*
X004387Y000434D01*
X004370Y000469D01*
X004357Y000506D01*
X004348Y000543D01*
X004342Y000581D01*
X004340Y000620D01*
D11*
X004586Y001189D02*
X004752Y001189D01*
X004880Y001189D02*
X004880Y001440D01*
X005047Y001189D01*
X005047Y001440D01*
X004752Y001440D02*
X004586Y001440D01*
X004586Y001189D01*
X004586Y001314D02*
X004669Y001314D01*
X004729Y001824D02*
X004562Y001824D01*
X004520Y001866D01*
X004520Y001949D01*
X004562Y001991D01*
X004562Y002119D02*
X004729Y002119D01*
X004770Y002161D01*
X004770Y002244D01*
X004729Y002286D01*
X004562Y002286D01*
X004520Y002244D01*
X004520Y002161D01*
X004562Y002119D01*
X004729Y001991D02*
X004770Y001949D01*
X004770Y001866D01*
X004729Y001824D01*
X005431Y001361D02*
X005473Y001361D01*
X005514Y001319D01*
X005556Y001361D01*
X005598Y001319D01*
X005598Y001194D01*
X005514Y001194D02*
X005514Y001319D01*
X005431Y001361D02*
X005431Y001194D01*
X005726Y001194D02*
X005851Y001194D01*
X005892Y001236D01*
X005851Y001278D01*
X005767Y001278D01*
X005726Y001319D01*
X005767Y001361D01*
X005892Y001361D01*
X006020Y001361D02*
X006104Y001445D01*
X006104Y001194D01*
X006187Y001194D02*
X006020Y001194D01*
X006376Y001175D02*
X006376Y001341D01*
X006417Y001341D01*
X006459Y001300D01*
X006501Y001341D01*
X006543Y001300D01*
X006543Y001175D01*
X006459Y001175D02*
X006459Y001300D01*
X006670Y001300D02*
X006712Y001341D01*
X006837Y001341D01*
X006796Y001258D02*
X006712Y001258D01*
X006670Y001300D01*
X006670Y001175D02*
X006796Y001175D01*
X006837Y001216D01*
X006796Y001258D01*
X006965Y001175D02*
X007132Y001341D01*
X007132Y001383D01*
X007090Y001425D01*
X007007Y001425D01*
X006965Y001383D01*
X006965Y001175D02*
X007132Y001175D01*
X007577Y001175D02*
X007577Y001341D01*
X007702Y001341D01*
X007743Y001300D01*
X007743Y001175D01*
X007871Y001216D02*
X007871Y001300D01*
X007913Y001341D01*
X008038Y001341D01*
X008038Y001175D02*
X007913Y001175D01*
X007871Y001216D01*
X008482Y001214D02*
X008482Y001464D01*
X008607Y001464D01*
X008649Y001423D01*
X008649Y001339D01*
X008607Y001297D01*
X008482Y001297D01*
X008565Y001297D02*
X008649Y001214D01*
X008777Y001214D02*
X008944Y001214D01*
X009071Y001214D02*
X009071Y001464D01*
X009238Y001464D01*
X009155Y001339D02*
X009071Y001339D01*
X008944Y001464D02*
X008777Y001464D01*
X008777Y001214D01*
X008777Y001339D02*
X008860Y001339D01*
X009565Y001381D02*
X009565Y001214D01*
X009732Y001214D02*
X009732Y001339D01*
X009690Y001381D01*
X009565Y001381D01*
X009859Y001339D02*
X009859Y001256D01*
X009901Y001214D01*
X010026Y001214D01*
X010026Y001381D02*
X009901Y001381D01*
X009859Y001339D01*
X010293Y001381D02*
X010335Y001339D01*
X010418Y001339D01*
X010460Y001297D01*
X010460Y001256D01*
X010418Y001214D01*
X010335Y001214D01*
X010293Y001256D01*
X010293Y001381D02*
X010293Y001423D01*
X010335Y001464D01*
X010418Y001464D01*
X010460Y001423D01*
X010588Y001464D02*
X010755Y001464D01*
X010671Y001464D02*
X010671Y001214D01*
X010882Y001214D02*
X011049Y001214D01*
X011177Y001214D02*
X011177Y001464D01*
X011302Y001464D01*
X011344Y001423D01*
X011344Y001339D01*
X011302Y001297D01*
X011177Y001297D01*
X011049Y001464D02*
X010882Y001464D01*
X010882Y001214D01*
X010882Y001339D02*
X010966Y001339D01*
X011533Y001214D02*
X011658Y001214D01*
X011700Y001256D01*
X011700Y001423D01*
X011658Y001464D01*
X011533Y001464D01*
X011533Y001214D01*
X011828Y001214D02*
X011911Y001214D01*
X011870Y001214D02*
X011870Y001464D01*
X011911Y001464D02*
X011828Y001464D01*
X012024Y001464D02*
X012149Y001464D01*
X012191Y001423D01*
X012191Y001339D01*
X012149Y001297D01*
X012024Y001297D01*
X012024Y001214D02*
X012024Y001464D01*
X012108Y001297D02*
X012191Y001214D01*
X011816Y001923D02*
X011649Y001923D01*
X011649Y002173D01*
X011816Y002173D01*
X011733Y002048D02*
X011649Y002048D01*
X011522Y002048D02*
X011480Y002006D01*
X011355Y002006D01*
X011438Y002006D02*
X011522Y001923D01*
X011522Y002048D02*
X011522Y002131D01*
X011480Y002173D01*
X011355Y002173D01*
X011355Y001923D01*
X011227Y001923D02*
X011060Y001923D01*
X011060Y002173D01*
X011227Y002173D01*
X011144Y002048D02*
X011060Y002048D01*
X010932Y002048D02*
X010766Y002048D01*
X010766Y001923D02*
X010766Y002173D01*
X010932Y002173D02*
X010932Y001923D01*
X010615Y002572D02*
X010449Y002572D01*
X010449Y002823D01*
X010321Y002781D02*
X010279Y002823D01*
X010196Y002823D01*
X010154Y002781D01*
X010154Y002614D01*
X010196Y002572D01*
X010279Y002572D01*
X010321Y002614D01*
X010321Y002781D01*
X010026Y002781D02*
X010026Y002614D01*
X009984Y002572D01*
X009901Y002572D01*
X009859Y002614D01*
X009859Y002781D01*
X009901Y002823D01*
X009984Y002823D01*
X010026Y002781D01*
X009732Y002781D02*
X009690Y002823D01*
X009606Y002823D01*
X009565Y002781D01*
X009565Y002614D01*
X009606Y002572D01*
X009690Y002572D01*
X009732Y002614D01*
X008663Y003084D02*
X008663Y003334D01*
X008580Y003334D02*
X008747Y003334D01*
X008467Y003334D02*
X008384Y003334D01*
X008425Y003334D02*
X008425Y003084D01*
X008384Y003084D02*
X008467Y003084D01*
X008452Y003931D02*
X008327Y004056D01*
X008285Y004014D02*
X008452Y004181D01*
X008580Y004181D02*
X008580Y003931D01*
X008747Y003931D01*
X008875Y003931D02*
X009041Y003931D01*
X009169Y003931D02*
X009169Y004181D01*
X009294Y004181D01*
X009336Y004139D01*
X009336Y004056D01*
X009294Y004014D01*
X009169Y004014D01*
X009041Y004181D02*
X008875Y004181D01*
X008875Y003931D01*
X008875Y004056D02*
X008958Y004056D01*
X008747Y004181D02*
X008580Y004181D01*
X008580Y004056D02*
X008663Y004056D01*
X008285Y004181D02*
X008285Y003931D01*
X008566Y004452D02*
X008608Y004452D01*
X008649Y004494D01*
X008649Y004703D01*
X008483Y004703D02*
X008483Y004577D01*
X008524Y004536D01*
X008649Y004536D01*
X008355Y004577D02*
X008355Y004661D01*
X008313Y004703D01*
X008188Y004703D01*
X008188Y004786D02*
X008188Y004536D01*
X008313Y004536D01*
X008355Y004577D01*
X007766Y004536D02*
X007766Y004661D01*
X007724Y004703D01*
X007599Y004703D01*
X007599Y004536D01*
X007471Y004536D02*
X007346Y004536D01*
X007304Y004577D01*
X007304Y004661D01*
X007346Y004703D01*
X007471Y004703D01*
X007471Y004494D01*
X007429Y004452D01*
X007387Y004452D01*
X007191Y004536D02*
X007108Y004536D01*
X007149Y004536D02*
X007149Y004703D01*
X007108Y004703D01*
X007149Y004786D02*
X007149Y004828D01*
X006980Y004703D02*
X006855Y004703D01*
X006813Y004661D01*
X006855Y004619D01*
X006938Y004619D01*
X006980Y004577D01*
X006938Y004536D01*
X006813Y004536D01*
X006685Y004619D02*
X006518Y004619D01*
X006518Y004577D02*
X006518Y004661D01*
X006560Y004703D01*
X006643Y004703D01*
X006685Y004661D01*
X006685Y004619D01*
X006643Y004536D02*
X006560Y004536D01*
X006518Y004577D01*
X006391Y004536D02*
X006265Y004536D01*
X006224Y004577D01*
X006224Y004661D01*
X006265Y004703D01*
X006391Y004703D01*
X006391Y004786D02*
X006391Y004536D01*
X005897Y004742D02*
X005897Y004825D01*
X005856Y004867D01*
X005772Y004867D01*
X005772Y004784D01*
X005689Y004867D02*
X005647Y004825D01*
X005647Y004742D01*
X005689Y004700D01*
X005856Y004700D01*
X005897Y004742D01*
X005897Y004995D02*
X005647Y004995D01*
X005897Y005162D01*
X005647Y005162D01*
X005647Y005289D02*
X005647Y005415D01*
X005689Y005456D01*
X005856Y005456D01*
X005897Y005415D01*
X005897Y005289D01*
X005647Y005289D01*
X004874Y005334D02*
X004624Y005334D01*
X004624Y005417D02*
X004624Y005250D01*
X004665Y005122D02*
X004624Y005081D01*
X004624Y004997D01*
X004665Y004955D01*
X004832Y004955D01*
X004874Y004997D01*
X004874Y005081D01*
X004832Y005122D01*
X004665Y005122D01*
X004624Y004828D02*
X004874Y004828D01*
X004874Y004661D02*
X004624Y004661D01*
X004707Y004744D01*
X004624Y004828D01*
X004624Y004533D02*
X004790Y004533D01*
X004874Y004450D01*
X004790Y004366D01*
X004624Y004366D01*
X004520Y003759D02*
X004729Y003759D01*
X004770Y003717D01*
X004770Y003634D01*
X004729Y003592D01*
X004520Y003592D01*
X004770Y003464D02*
X004770Y003298D01*
X004520Y003298D01*
X004562Y003170D02*
X004520Y003128D01*
X004520Y003045D01*
X004562Y003003D01*
X004729Y003003D01*
X004770Y003045D01*
X004770Y003128D01*
X004729Y003170D01*
X004562Y003170D01*
X004770Y002875D02*
X004770Y002708D01*
X004520Y002708D01*
X004562Y002580D02*
X004520Y002539D01*
X004520Y002455D01*
X004562Y002414D01*
X004729Y002414D01*
X004770Y002455D01*
X004770Y002539D01*
X004729Y002580D01*
X004562Y002580D01*
X004920Y003370D02*
X004920Y003620D01*
X005045Y003620D01*
X005087Y003578D01*
X005087Y003495D01*
X005045Y003453D01*
X004920Y003453D01*
X005215Y003453D02*
X005382Y003453D01*
X005298Y003453D02*
X005298Y003703D01*
X005215Y003620D01*
X006553Y005112D02*
X006720Y005112D01*
X006636Y005112D02*
X006636Y005362D01*
X006553Y005278D01*
X006848Y005237D02*
X006973Y005237D01*
X007014Y005195D01*
X007014Y005153D01*
X006973Y005112D01*
X006848Y005112D01*
X006848Y005362D01*
X006973Y005362D01*
X007014Y005320D01*
X007014Y005278D01*
X006973Y005237D01*
X007577Y005298D02*
X007660Y005382D01*
X007660Y005131D01*
X007577Y005131D02*
X007743Y005131D01*
X007871Y005131D02*
X007871Y005298D01*
X007955Y005382D01*
X008038Y005298D01*
X008038Y005131D01*
X008038Y005256D02*
X007871Y005256D01*
X008502Y005360D02*
X008543Y005401D01*
X008627Y005401D01*
X008669Y005360D01*
X008669Y005318D01*
X008502Y005151D01*
X008669Y005151D01*
X008796Y005151D02*
X008796Y005318D01*
X008880Y005401D01*
X008963Y005318D01*
X008963Y005151D01*
X008963Y005276D02*
X008796Y005276D01*
X009076Y004786D02*
X009076Y004536D01*
X009076Y004619D02*
X009243Y004786D01*
X009371Y004786D02*
X009413Y004786D01*
X009413Y004536D01*
X009454Y004536D02*
X009371Y004536D01*
X009243Y004536D02*
X009118Y004661D01*
X009567Y004703D02*
X009609Y004703D01*
X009609Y004536D01*
X009567Y004536D02*
X009651Y004536D01*
X009764Y004536D02*
X009764Y004703D01*
X009806Y004703D01*
X009847Y004661D01*
X009889Y004703D01*
X009931Y004661D01*
X009931Y004536D01*
X009847Y004536D02*
X009847Y004661D01*
X010059Y004661D02*
X010059Y004577D01*
X010100Y004536D01*
X010184Y004536D01*
X010225Y004619D02*
X010059Y004619D01*
X010059Y004661D02*
X010100Y004703D01*
X010184Y004703D01*
X010225Y004661D01*
X010225Y004619D01*
X010353Y004536D02*
X010353Y004703D01*
X010478Y004703D01*
X010520Y004661D01*
X010520Y004536D01*
X010690Y004577D02*
X010731Y004536D01*
X010690Y004577D02*
X010690Y004744D01*
X010731Y004703D02*
X010648Y004703D01*
X010647Y005151D02*
X010772Y005151D01*
X010814Y005193D01*
X010814Y005360D01*
X010772Y005401D01*
X010647Y005401D01*
X010647Y005151D01*
X010519Y005234D02*
X010519Y005401D01*
X010519Y005234D02*
X010436Y005151D01*
X010352Y005234D01*
X010352Y005401D01*
X010026Y005399D02*
X010026Y005357D01*
X009984Y005316D01*
X009859Y005316D01*
X009859Y005441D02*
X009984Y005441D01*
X010026Y005399D01*
X009984Y005316D02*
X010026Y005274D01*
X010026Y005232D01*
X009984Y005190D01*
X009859Y005190D01*
X009859Y005441D01*
X009732Y005399D02*
X009690Y005441D01*
X009606Y005441D01*
X009565Y005399D01*
X009732Y005399D02*
X009732Y005357D01*
X009565Y005190D01*
X009732Y005190D01*
X009609Y004828D02*
X009609Y004786D01*
X010941Y005151D02*
X011067Y005151D01*
X011108Y005193D01*
X011108Y005360D01*
X011067Y005401D01*
X010941Y005401D01*
X010941Y005151D01*
X011356Y005212D02*
X011398Y005171D01*
X011481Y005171D01*
X011523Y005212D01*
X011523Y005296D01*
X011439Y005296D01*
X011356Y005379D02*
X011356Y005212D01*
X011356Y005379D02*
X011398Y005421D01*
X011481Y005421D01*
X011523Y005379D01*
X011651Y005421D02*
X011818Y005171D01*
X011818Y005421D01*
X011945Y005421D02*
X012070Y005421D01*
X012112Y005379D01*
X012112Y005212D01*
X012070Y005171D01*
X011945Y005171D01*
X011945Y005421D01*
X011651Y005421D02*
X011651Y005171D01*
D12*
X012109Y004388D02*
X012109Y001573D01*
X007679Y001573D01*
X007679Y004388D01*
X007679Y004407D01*
X007679Y004388D02*
X012109Y004388D01*
X009628Y006120D02*
X009592Y006146D01*
X009553Y006169D01*
X009513Y006188D01*
X009471Y006205D01*
X009428Y006217D01*
X009384Y006227D01*
X009339Y006232D01*
X009294Y006234D01*
X009249Y006232D01*
X009204Y006227D01*
X009160Y006217D01*
X009117Y006205D01*
X009075Y006188D01*
X009035Y006169D01*
X008996Y006146D01*
X008960Y006120D01*
X007600Y006100D02*
X007564Y006126D01*
X007525Y006149D01*
X007485Y006168D01*
X007443Y006185D01*
X007400Y006197D01*
X007356Y006207D01*
X007311Y006212D01*
X007266Y006214D01*
X007221Y006212D01*
X007176Y006207D01*
X007132Y006197D01*
X007089Y006185D01*
X007047Y006168D01*
X007007Y006149D01*
X006968Y006126D01*
X006932Y006100D01*
D13*
X006341Y002734D02*
X004983Y002734D01*
X004983Y001514D01*
X006341Y001514D01*
X006341Y002734D01*
D14*
X006787Y002556D02*
X006787Y001456D01*
X006789Y001439D01*
X006793Y001422D01*
X006800Y001406D01*
X006810Y001392D01*
X006823Y001379D01*
X006837Y001369D01*
X006853Y001362D01*
X006870Y001358D01*
X006887Y001356D01*
X007487Y001356D01*
X007504Y001358D01*
X007521Y001362D01*
X007537Y001369D01*
X007551Y001379D01*
X007564Y001392D01*
X007574Y001406D01*
X007581Y001422D01*
X007585Y001439D01*
X007587Y001456D01*
X007587Y002556D01*
X007585Y002573D01*
X007581Y002590D01*
X007574Y002606D01*
X007564Y002620D01*
X007551Y002633D01*
X007537Y002643D01*
X007521Y002650D01*
X007504Y002654D01*
X007487Y002656D01*
X006887Y002656D01*
X006870Y002654D01*
X006853Y002650D01*
X006837Y002643D01*
X006823Y002633D01*
X006810Y002620D01*
X006800Y002606D01*
X006793Y002590D01*
X006789Y002573D01*
X006787Y002556D01*
M02*
